<?xml version="1.0" encoding="UTF-8"?>
<svg id="Layer_2" data-name="Layer 2" xmlns="http://www.w3.org/2000/svg" xmlns:xlink="http://www.w3.org/1999/xlink" viewBox="0 0 361.19 41.32">
  <defs>
    <style>
      .cls-1 {
        fill: url(#linear-gradient);
      }

      .cls-2 {
        fill: url(#linear-gradient-8);
      }

      .cls-3 {
        fill: url(#linear-gradient-9);
      }

      .cls-4 {
        fill: url(#linear-gradient-3);
      }

      .cls-5 {
        fill: url(#linear-gradient-4);
      }

      .cls-6 {
        fill: url(#linear-gradient-2);
      }

      .cls-7 {
        fill: url(#linear-gradient-6);
      }

      .cls-8 {
        fill: url(#linear-gradient-7);
      }

      .cls-9 {
        fill: url(#linear-gradient-5);
      }

      .cls-10 {
        fill: url(#linear-gradient-14);
      }

      .cls-11 {
        fill: url(#linear-gradient-18);
      }

      .cls-12 {
        fill: url(#linear-gradient-22);
      }

      .cls-13 {
        fill: url(#linear-gradient-20);
      }

      .cls-14 {
        fill: url(#linear-gradient-21);
      }

      .cls-15 {
        fill: url(#linear-gradient-23);
      }

      .cls-16 {
        fill: url(#linear-gradient-15);
      }

      .cls-17 {
        fill: url(#linear-gradient-19);
      }

      .cls-18 {
        fill: url(#linear-gradient-16);
      }

      .cls-19 {
        fill: url(#linear-gradient-17);
      }

      .cls-20 {
        fill: url(#linear-gradient-13);
      }

      .cls-21 {
        fill: url(#linear-gradient-12);
      }

      .cls-22 {
        fill: url(#linear-gradient-10);
      }

      .cls-23 {
        fill: url(#linear-gradient-11);
      }

      .cls-24 {
        fill: url(#linear-gradient-24);
      }
    </style>
    <linearGradient id="linear-gradient" x1="10.8" y1="6.08" x2="10.8" y2="34.37" gradientUnits="userSpaceOnUse">
      <stop offset="0" stop-color="#e0848f"/>
      <stop offset="1" stop-color="#77c0d3"/>
    </linearGradient>
    <linearGradient id="linear-gradient-2" x1="7.75" y1="6.08" x2="7.75" y2="34.37" xlink:href="#linear-gradient"/>
    <linearGradient id="linear-gradient-3" x1="71.93" y1="6.08" x2="71.93" y2="34.37" xlink:href="#linear-gradient"/>
    <linearGradient id="linear-gradient-4" x1="91.45" y1="6.08" x2="91.45" y2="34.37" xlink:href="#linear-gradient"/>
    <linearGradient id="linear-gradient-5" x1="148.07" y1="6.08" x2="148.07" y2="34.37" xlink:href="#linear-gradient"/>
    <linearGradient id="linear-gradient-6" x1="147.92" y1="6.08" x2="147.92" y2="34.37" xlink:href="#linear-gradient"/>
    <linearGradient id="linear-gradient-7" x1="182.91" y1="6.08" x2="182.91" y2="34.37" xlink:href="#linear-gradient"/>
    <linearGradient id="linear-gradient-8" x1="186.34" y1="6.08" x2="186.34" y2="34.37" xlink:href="#linear-gradient"/>
    <linearGradient id="linear-gradient-9" x1="45.14" y1="6.08" x2="45.14" y2="34.37" xlink:href="#linear-gradient"/>
    <linearGradient id="linear-gradient-10" x1="44.92" y1="6.08" x2="44.92" y2="34.37" xlink:href="#linear-gradient"/>
    <linearGradient id="linear-gradient-11" x1="114.45" y1="6.08" x2="114.45" y2="34.37" xlink:href="#linear-gradient"/>
    <linearGradient id="linear-gradient-12" x1="117.86" y1="6.08" x2="117.86" y2="34.37" xlink:href="#linear-gradient"/>
    <linearGradient id="linear-gradient-13" x1="115.4" y1="6.08" x2="115.4" y2="34.37" xlink:href="#linear-gradient"/>
    <linearGradient id="linear-gradient-14" x1="241.18" y1="6.08" x2="241.18" y2="34.37" xlink:href="#linear-gradient"/>
    <linearGradient id="linear-gradient-15" x1="240.91" y1="6.08" x2="240.91" y2="34.37" xlink:href="#linear-gradient"/>
    <linearGradient id="linear-gradient-16" x1="274.25" y1="6.08" x2="274.25" y2="34.37" xlink:href="#linear-gradient"/>
    <linearGradient id="linear-gradient-17" x1="274.36" y1="6.08" x2="274.36" y2="34.37" xlink:href="#linear-gradient"/>
    <linearGradient id="linear-gradient-18" x1="274.29" y1="6.08" x2="274.29" y2="34.37" xlink:href="#linear-gradient"/>
    <linearGradient id="linear-gradient-19" x1="313.76" y1="6.08" x2="313.76" y2="34.37" xlink:href="#linear-gradient"/>
    <linearGradient id="linear-gradient-20" x1="312.64" y1="6.08" x2="312.64" y2="34.37" xlink:href="#linear-gradient"/>
    <linearGradient id="linear-gradient-21" x1="352.21" y1="6.08" x2="352.21" y2="34.37" xlink:href="#linear-gradient"/>
    <linearGradient id="linear-gradient-22" x1="348.85" y1="6.08" x2="348.85" y2="34.37" xlink:href="#linear-gradient"/>
    <linearGradient id="linear-gradient-23" x1="352.21" y1="6.08" x2="352.21" y2="34.37" xlink:href="#linear-gradient"/>
    <linearGradient id="linear-gradient-24" x1="81.85" y1="6.08" x2="81.85" y2="34.37" xlink:href="#linear-gradient"/>
  </defs>
  <g id="Layer_1-2" data-name="Layer 1">
    <path class="cls-1" d="m18,28.6c-.1,2.36-.99,5.76-2.38,6.9-1.5,1.23-3.67,2.32-6.24,2.32-1.19,0-2.45-.06-3.76-.17-1.29-.11-2.58-.36-3.84-.73l-.54-.16-1.25,3.35.64.17c.89.23,3.04.62,4.33.79,1.31.17,2.79.25,4.41.25,3.59,0,6.66-1.28,8.71-3.15,2.25-2.05,3.52-6.22,3.52-9.57V1.03h-3.6v27.58Z"/>
    <path class="cls-6" d="m4.36,33.49l.25.04c1.18.18,2.14.28,2.87.28,2.04,0,3.78-.58,5.17-1.73,1.42-1.17,2.15-2.92,2.15-5.18V1.03h-3.6v25.88c0,1.12-.34,1.94-1.03,2.49-.73.59-1.61.87-2.68.87-.77,0-1.74-.1-2.9-.31l-.3-.05c-1.01-.18-1.52-.27-2.33-.52l-.66-.21-.59,3.61.53.13c.99.25,2.02.41,3.12.58Z"/>
    <polygon class="cls-4" points="63.78 1.03 76.47 27.08 76.47 40.34 80.07 40.34 80.07 26.26 67.72 1.03 63.78 1.03"/>
    <polygon class="cls-5" points="83.33 26.41 83.33 40.34 86.93 40.34 86.93 27.13 99.56 1.03 95.63 1.03 83.33 26.41"/>
    <path class="cls-9" d="m141.02,32.01c1.78,1.65,4.1,2.48,6.92,2.48,1.85,0,3.54-.37,5-1.09,1.49-.73,2.69-1.88,3.56-3.42.87-1.52,1.31-3.49,1.31-5.87V1.03h-3.6v23.09c0,2.39-.59,4.14-1.76,5.2-1.2,1.09-2.67,1.63-4.51,1.63s-3.29-.53-4.39-1.61c-1.08-1.07-1.63-2.82-1.63-5.22V1.03h-3.6v23.09c0,3.58.91,6.23,2.7,7.89Z"/>
    <path class="cls-7" d="m160.77,26.55c0,2.25-.56,4.24-1.66,5.93-1.1,1.69-2.63,3.02-4.54,3.94-1.93.93-4.16,1.41-6.63,1.41s-4.81-.48-6.75-1.43c-1.93-.94-3.45-2.27-4.52-3.96-1.07-1.68-1.61-3.66-1.61-5.88V1.03h-3.6v25.52c0,2.9.7,5.5,2.1,7.72,1.39,2.22,3.35,3.97,5.83,5.2,2.46,1.23,5.34,1.85,8.56,1.85s5.99-.62,8.43-1.85c2.46-1.23,4.42-2.97,5.85-5.17,1.43-2.21,2.15-4.81,2.15-7.75V1.03h-3.6v25.52Z"/>
    <polygon class="cls-8" points="172.99 1.03 169.38 1.03 169.38 40.34 196.43 40.34 196.43 36.8 172.99 36.8 172.99 1.03"/>
    <polygon class="cls-2" points="179.85 1.03 176.25 1.03 176.25 33.35 196.43 33.35 196.43 29.8 179.85 29.8 179.85 1.03"/>
    <path class="cls-3" d="m48.98,31.15c-1.19.9-2.47,1.34-3.92,1.34s-2.87-.45-4.08-1.35c-1.22-.91-2.2-2.26-2.91-4.02-.14-.35-.4-1.07-.51-1.43l-.13-.44-3.62.07.19.73c.22.86.56,2.06.94,2.9,1.04,2.29,2.47,4.06,4.24,5.26,1.78,1.2,3.75,1.81,5.87,1.81s3.93-.61,5.68-1.82c1.73-1.2,3.16-2.96,4.23-5.25,1.07-2.27,1.61-5.09,1.61-8.39s-.52-6.15-1.53-8.38c-1.03-2.26-2.43-3.99-4.17-5.14h0c-1.75-1.15-3.7-1.74-5.82-1.74-1.98,0-3.88.58-5.66,1.73-1.77,1.15-3.23,2.87-4.34,5.12-.44.9-.84,2.17-1.19,3.78l-.16.73,3.61-.02.11-.45c.18-.71.47-1.59.71-2.14.75-1.72,1.76-3.03,2.98-3.91,1.21-.87,2.53-1.31,3.93-1.31,2.29,0,4.14.96,5.63,2.94,1.51,2,2.28,4.95,2.28,8.78,0,2.55-.37,4.75-1.11,6.54-.72,1.76-1.7,3.12-2.89,4.03Z"/>
    <path class="cls-22" d="m59.59,16.23l.09.48,3.74.03-.12-.71c-.35-2.03-1.09-4.3-2.03-6.22-1.51-3.09-3.69-5.52-6.46-7.23-2.77-1.71-6.06-2.58-9.76-2.58s-6.99.86-9.78,2.56c-2.79,1.7-4.99,4.12-6.54,7.21-1.54,3.07-2.32,6.71-2.32,10.82s.78,7.91,2.32,10.99c1.55,3.1,3.75,5.53,6.54,7.21,2.79,1.68,6.08,2.53,9.78,2.53s6.98-.85,9.75-2.53c2.78-1.68,4.95-4.11,6.47-7.21.73-1.5,1.43-3.69,1.84-5.72l.14-.7-3.69-.1-.11.48c-.28,1.22-.81,3.05-1.36,4.22-1.21,2.56-2.94,4.56-5.14,5.96-2.2,1.4-4.85,2.11-7.89,2.11s-5.72-.71-7.95-2.11c-2.23-1.4-3.98-3.4-5.21-5.96-1.24-2.58-1.87-5.66-1.87-9.17s.63-6.48,1.87-9.02c1.23-2.52,2.98-4.51,5.22-5.91,2.23-1.4,4.9-2.11,7.95-2.11s5.7.72,7.89,2.13c2.2,1.42,3.93,3.41,5.14,5.94.63,1.3,1.19,3.03,1.5,4.62Z"/>
    <polygon class="cls-23" points="101.72 40.34 105.32 40.34 105.32 4.57 127.18 4.57 127.18 1.03 101.72 1.03 101.72 40.34"/>
    <polygon class="cls-21" points="108.53 19.38 122.27 19.38 122.27 15.83 112.13 15.83 112.13 11.37 127.18 11.37 127.18 7.83 108.53 7.83 108.53 19.38"/>
    <polygon class="cls-20" points="108.53 40.34 112.13 40.34 112.13 26.55 122.27 26.55 122.27 23.01 108.53 23.01 108.53 40.34"/>
    <path class="cls-10" d="m244.3,17.25c-1.02.81-2.3,1.22-3.79,1.22h-2.3v3.54h2.3c1.62,0,3.11-.31,4.43-.91,1.35-.62,2.44-1.56,3.24-2.81.79-1.25,1.2-1.94,1.2-3.8,0-2.85-.8-4.4-2.6-6.28-1.49-1.56-3.81-2.04-6.31-2.04h-7.48v3.55h7.48c1.53,0,2.88.33,3.84,1.19,1.12,1.01,1.47,1.87,1.47,3.58s-.48,1.98-1.48,2.77Z"/>
    <path class="cls-16" d="m254.41,7.57c-1.12-2.03-2.71-3.64-4.74-4.8-2.02-1.16-4.43-1.74-7.16-1.74h-16.78v39.32h3.6V4.57h13.18c2.05,0,3.84.43,5.31,1.29,1.47.85,2.62,2.03,3.43,3.51.81,1.48,1.23,3.22,1.23,5.16,0,3.08-.9,5.55-2.68,7.35-1.78,1.8-4.28,2.71-7.44,2.71h-9.24v15.76h3.6v-12.22h5.63c4.22,0,7.6-1.23,10.04-3.67,2.44-2.44,3.68-5.78,3.68-9.93,0-2.6-.56-4.94-1.68-6.96h0Z"/>
    <polygon class="cls-18" points="266.46 27.85 262.14 40.34 265.91 40.34 269.02 31.4 279.6 31.4 282.6 40.34 286.37 40.34 282.21 27.85 266.46 27.85"/>
    <polygon class="cls-19" points="267.31 24.72 281.4 24.72 275.51 8.03 273.79 13.28 276.43 21.18 268.47 21.18 267.31 24.72"/>
    <polygon class="cls-11" points="268.05 1.03 254.62 40.34 258.39 40.34 270.66 4.57 277.92 4.57 289.96 39.94 290.1 40.34 293.97 40.34 280.53 1.03 268.05 1.03"/>
    <path class="cls-17" d="m309.92,11.76c1.4-.91,2.59-1.2,4.4-1.2s3.56.01,4.91.86c1.36.85,2.36,1.35,3.18,2.85l.37.68,2.78-2.57-.26-.42c-1.32-2.14-2.89-3.02-4.86-3.96-1.94-.93-4.07-.99-6.12-.99-2.44,0-4.42.56-6.38,1.75-1.96,1.2-3.5,2.96-4.63,5.25-1.12,2.27-1.37,3.3-1.37,6.57s1.48,8.22,4.25,10.94c1.67,1.64,4.8,3.39,7.4,3.45,2.33.06,4.33-.43,5.94-1.29,1.62-.86,2.91-2.03,3.83-3.48l.09-.15v-9.65h-3.6v8.61c-.48.65-1.22,1.22-2.21,1.67-1.08.5-2.45.77-4.06.75-1.98-.02-4.44-1.81-5.63-3.02-1.66-1.69-2.42-5.22-2.42-7.82s.09-2.94.9-4.71c.8-1.74,2.07-3.21,3.47-4.12Z"/>
    <path class="cls-13" d="m326.75,33.29c-2.29,3.01-6.24,4.54-11.72,4.54-3.39,0-6.35-.71-8.8-2.1-2.44-1.38-4.35-3.38-5.67-5.94-1.33-2.57-2.01-5.67-2.01-9.2s.65-6.43,1.94-8.99c1.28-2.54,3.09-4.54,5.39-5.94,2.3-1.4,5.01-2.11,8.05-2.11,2.88,0,5.48.49,7.73,1.44,2.21.94,4.02,2.57,5.38,4.86l.38.63,2.48-2.27-.2-.4c-1.19-2.39-3.17-4.31-5.9-5.71-2.7-1.39-6.02-2.09-9.87-2.09s-7.02.87-9.88,2.58c-2.86,1.71-5.11,4.14-6.71,7.23-1.59,3.07-2.4,6.7-2.4,10.78s.82,7.92,2.45,11.01c1.63,3.1,3.98,5.53,6.98,7.21,2.98,1.67,6.57,2.52,10.66,2.52,3.61,0,6.73-.59,9.27-1.77,2.56-1.18,4.57-2.89,5.96-5.06l.09-.15v-14.01h-3.6v12.95Z"/>
    <polygon class="cls-14" points="343.23 18.6 358.72 18.6 358.72 15.05 346.83 15.05 346.83 10.97 361.19 10.97 361.19 7.42 343.23 7.42 343.23 18.6"/>
    <polygon class="cls-12" points="336.52 1.03 336.52 40.34 361.19 40.34 361.19 36.8 340.12 36.8 340.12 4.57 361.19 4.57 361.19 1.03 336.52 1.03"/>
    <polygon class="cls-15" points="346.83 25.68 358.72 25.68 358.72 22.14 343.23 22.14 343.23 33.95 361.19 33.95 361.19 30.4 346.83 30.4 346.83 25.68"/>
    <polygon class="cls-24" points="87.84 1.17 81.83 14.3 75.86 1.17 71.89 1.17 81.88 22.96 91.81 1.17 87.84 1.17"/>
  </g>
</svg>