<?xml version="1.0" encoding="UTF-8"?>
<svg id="Layer_2" data-name="Layer 2" xmlns="http://www.w3.org/2000/svg" viewBox="0 0 200 34.45">
  <defs>
    <style>
      .cls-1, .cls-2 {
        fill: #fff;
      }

      .cls-3 {
        letter-spacing: 1em;
      }

      .cls-4 {
        letter-spacing: .98em;
      }

      .cls-2 {
        font-family: ArialMT, Arial;
        font-size: 6.64px;
      }
    </style>
  </defs>
  <g id="Layer_1-2" data-name="Layer 1">
    <g>
      <text class="cls-2" transform="translate(19.27 32.29)"><tspan class="cls-3" x="0" y="0">EXPLORER OF JO</tspan><tspan class="cls-4" x="150.51" y="0">Y</tspan></text>
      <g>
        <path class="cls-1" d="m9.97,15.84c-.05,1.31-.55,3.19-1.32,3.82-.83.68-2.03,1.28-3.46,1.28-.66,0-1.36-.03-2.08-.09-.71-.06-1.43-.2-2.12-.41l-.3-.09-.69,1.86.36.09c.49.13,1.68.35,2.4.44.72.09,1.54.14,2.44.14,1.99,0,3.69-.71,4.82-1.74,1.24-1.14,1.95-3.45,1.95-5.3V.57h-2v15.27Z"/>
        <path class="cls-1" d="m2.41,18.54l.14.02c.65.1,1.19.15,1.59.15,1.13,0,2.09-.32,2.86-.96.79-.65,1.19-1.61,1.19-2.87V.57h-2v14.33c0,.62-.19,1.07-.57,1.38-.41.32-.89.48-1.48.48-.42,0-.96-.06-1.61-.17l-.16-.03c-.56-.1-.84-.15-1.29-.29l-.37-.11-.33,2,.3.07c.55.14,1.12.23,1.73.32Z"/>
        <polygon class="cls-1" points="35.32 .57 42.34 14.99 42.34 22.34 44.34 22.34 44.34 14.54 37.5 .57 35.32 .57"/>
        <polygon class="cls-1" points="46.14 14.62 46.14 22.34 48.14 22.34 48.14 15.02 55.13 .57 52.95 .57 46.14 14.62"/>
        <path class="cls-1" d="m78.09,17.72c.98.91,2.27,1.37,3.83,1.37,1.03,0,1.96-.2,2.77-.6.82-.41,1.49-1.04,1.97-1.89.48-.84.72-1.93.72-3.25V.57h-2v12.79c0,1.32-.33,2.29-.97,2.88-.66.61-1.48.9-2.49.9s-1.82-.29-2.43-.89c-.6-.59-.9-1.56-.9-2.89V.57h-2v12.79c0,1.98.5,3.45,1.49,4.37Z"/>
        <path class="cls-1" d="m89.02,14.7c0,1.25-.31,2.35-.92,3.28-.61.94-1.46,1.67-2.52,2.18-1.07.52-2.3.78-3.67.78s-2.66-.27-3.74-.79c-1.07-.52-1.91-1.26-2.5-2.19-.59-.93-.89-2.03-.89-3.26V.57h-2v14.13c0,1.61.39,3.05,1.16,4.28.77,1.23,1.85,2.2,3.23,2.88,1.36.68,2.96,1.02,4.74,1.02s3.32-.34,4.67-1.02c1.36-.68,2.45-1.65,3.24-2.86.79-1.22,1.19-2.67,1.19-4.29V.57h-2v14.13Z"/>
        <polygon class="cls-1" points="95.79 .57 93.79 .57 93.79 22.34 108.77 22.34 108.77 20.38 95.79 20.38 95.79 .57"/>
        <polygon class="cls-1" points="99.59 .57 97.59 .57 97.59 18.46 108.77 18.46 108.77 16.5 99.59 16.5 99.59 .57"/>
        <path class="cls-1" d="m27.12,17.25c-.66.5-1.37.74-2.17.74s-1.59-.25-2.26-.75c-.68-.5-1.22-1.25-1.61-2.22-.08-.19-.22-.59-.28-.79l-.07-.24-2,.04.1.41c.12.48.31,1.14.52,1.6.58,1.27,1.37,2.25,2.35,2.91.98.67,2.08,1,3.25,1s2.18-.34,3.14-1.01c.96-.66,1.75-1.64,2.34-2.91.59-1.26.89-2.82.89-4.65s-.29-3.4-.85-4.64c-.57-1.25-1.35-2.21-2.31-2.85h0c-.97-.64-2.05-.96-3.22-.96-1.1,0-2.15.32-3.13.96-.98.63-1.79,1.59-2.41,2.84-.25.5-.47,1.2-.66,2.09l-.09.4h2s.06-.26.06-.26c.1-.39.26-.88.4-1.18.42-.95.97-1.68,1.65-2.16.67-.48,1.4-.72,2.18-.72,1.27,0,2.29.53,3.12,1.63.84,1.11,1.26,2.74,1.26,4.86,0,1.41-.21,2.63-.61,3.62-.4.98-.94,1.73-1.6,2.23Z"/>
        <path class="cls-1" d="m33,8.99l.05.27,2.07.02-.07-.39c-.19-1.13-.6-2.38-1.12-3.44-.84-1.71-2.04-3.06-3.58-4.01-1.54-.95-3.35-1.43-5.4-1.43s-3.87.48-5.42,1.41c-1.55.94-2.76,2.28-3.62,3.99-.85,1.7-1.28,3.72-1.28,5.99s.43,4.38,1.28,6.09c.86,1.72,2.08,3.06,3.62,3.99,1.54.93,3.37,1.4,5.41,1.4s3.87-.47,5.4-1.4c1.54-.93,2.74-2.28,3.58-3.99.4-.83.79-2.04,1.02-3.17l.08-.39-2.04-.05-.06.26c-.16.67-.45,1.69-.75,2.34-.67,1.42-1.63,2.53-2.85,3.3-1.22.77-2.69,1.17-4.37,1.17s-3.17-.39-4.4-1.17c-1.24-.77-2.21-1.88-2.89-3.3-.69-1.43-1.04-3.14-1.04-5.08s.35-3.59,1.03-5c.68-1.4,1.65-2.5,2.89-3.27,1.23-.77,2.72-1.17,4.4-1.17s3.15.4,4.37,1.18c1.22.78,2.18,1.89,2.85,3.29.35.72.66,1.68.83,2.56Z"/>
        <polygon class="cls-1" points="56.32 22.34 58.32 22.34 58.32 2.53 70.42 2.53 70.42 .57 56.32 .57 56.32 22.34"/>
        <polygon class="cls-1" points="60.09 10.73 67.7 10.73 67.7 8.77 62.09 8.77 62.09 6.3 70.42 6.3 70.42 4.33 60.09 4.33 60.09 10.73"/>
        <polygon class="cls-1" points="60.09 22.34 62.09 22.34 62.09 14.7 67.7 14.7 67.7 12.74 60.09 12.74 60.09 22.34"/>
        <path class="cls-1" d="m135.27,9.55c-.57.45-1.27.67-2.1.67h-1.27v1.96h1.27c.89,0,1.72-.17,2.45-.5.75-.34,1.35-.87,1.79-1.56.44-.69.66-1.07.66-2.11,0-1.58-.44-2.43-1.44-3.48-.83-.87-2.11-1.13-3.49-1.13h-4.14v1.96h4.14c.84,0,1.59.18,2.13.66.62.56.81,1.04.81,1.98s-.27,1.1-.82,1.53Z"/>
        <path class="cls-1" d="m140.87,4.19c-.62-1.12-1.5-2.02-2.62-2.66-1.12-.64-2.45-.96-3.97-.96h-9.29v21.77h2V2.53h7.3c1.14,0,2.13.24,2.94.71.81.47,1.45,1.13,1.9,1.94.45.82.68,1.78.68,2.86,0,1.71-.5,3.07-1.48,4.07-.98.99-2.37,1.5-4.12,1.5h-5.11v8.73h2v-6.76h3.12c2.34,0,4.21-.68,5.56-2.03,1.35-1.35,2.04-3.2,2.04-5.5,0-1.44-.31-2.74-.93-3.85h0Z"/>
        <polygon class="cls-1" points="147.54 15.42 145.15 22.34 147.24 22.34 148.96 17.39 154.82 17.39 156.48 22.34 158.57 22.34 156.27 15.42 147.54 15.42"/>
        <polygon class="cls-1" points="148.02 13.69 155.82 13.69 152.56 4.45 151.6 7.35 153.07 11.73 148.66 11.73 148.02 13.69"/>
        <polygon class="cls-1" points="148.43 .57 140.99 22.34 143.08 22.34 149.87 2.53 153.89 2.53 160.56 22.11 160.63 22.34 162.78 22.34 155.34 .57 148.43 .57"/>
        <path class="cls-1" d="m171.61,6.51c.77-.5,1.44-.66,2.44-.66s1.97,0,2.72.48c.75.47,1.31.75,1.76,1.58l.2.37,1.54-1.42-.14-.23c-.73-1.19-1.6-1.67-2.69-2.19-1.08-.52-2.25-.55-3.39-.55-1.35,0-2.45.31-3.53.97-1.09.66-1.94,1.64-2.56,2.91-.62,1.26-.76,1.83-.76,3.64s.82,4.55,2.35,6.06c.92.91,2.66,1.88,4.1,1.91,1.29.03,2.39-.24,3.29-.72.9-.48,1.61-1.12,2.12-1.93l.05-.08v-5.35h-1.99v4.77c-.27.36-.68.67-1.22.92-.6.28-1.36.42-2.25.42-1.1-.01-2.46-1-3.12-1.67-.92-.94-1.34-2.89-1.34-4.33s.05-1.63.5-2.61c.44-.97,1.15-1.78,1.92-2.28Z"/>
        <path class="cls-1" d="m180.93,18.43c-1.27,1.67-3.45,2.51-6.49,2.51-1.87,0-3.51-.39-4.87-1.16-1.35-.77-2.41-1.87-3.14-3.29-.74-1.42-1.11-3.14-1.11-5.1s.36-3.56,1.07-4.98c.71-1.41,1.71-2.51,2.98-3.29,1.27-.78,2.77-1.17,4.46-1.17,1.59,0,3.03.27,4.28.8,1.22.52,2.22,1.43,2.98,2.69l.21.35,1.37-1.26-.11-.22c-.66-1.32-1.76-2.39-3.27-3.16-1.49-.77-3.33-1.16-5.46-1.16s-3.89.48-5.47,1.43c-1.58.95-2.83,2.29-3.72,4-.88,1.7-1.33,3.71-1.33,5.97s.46,4.39,1.36,6.09c.9,1.72,2.2,3.06,3.86,3.99,1.65.93,3.64,1.4,5.9,1.4,2,0,3.73-.33,5.13-.98,1.42-.66,2.53-1.6,3.3-2.8l.05-.08v-7.76h-2v7.17Z"/>
        <polygon class="cls-1" points="190.05 10.3 198.63 10.3 198.63 8.33 192.05 8.33 192.05 6.07 200 6.07 200 4.11 190.05 4.11 190.05 10.3"/>
        <polygon class="cls-1" points="186.34 .57 186.34 22.34 200 22.34 200 20.38 188.33 20.38 188.33 2.53 200 2.53 200 .57 186.34 .57"/>
        <polygon class="cls-1" points="192.05 14.22 198.63 14.22 198.63 12.26 190.05 12.26 190.05 18.8 200 18.8 200 16.83 192.05 16.83 192.05 14.22"/>
        <polygon class="cls-1" points="48.64 .65 45.31 7.92 42 .65 39.81 .65 45.34 12.71 50.84 .65 48.64 .65"/>
      </g>
    </g>
  </g>
</svg>